#!OML:ASF H:\Terrain\Walking\May29\JustinRory\Justin.ASF
:FULLY-SPECIFIED
:DEGREES
1630
root 6.46384 17.9643 6.46583 -175.48 5.02965 181.158
lowerback 0.997758 1.25178 -3.05173
upperback 0.376521 1.70077 -1.94706
thorax -0.201443 0.877369 -0.305323
lowerneck -17.856 -5.24536 -13.379
upperneck 10.1598 -3.8272 1.7476
head 6.29981 -2.17308 2.27892
rclavicle 2.3059e-014 1.27222e-014
rhumerus -47.858 -39.0759 -60.5498
rradius 20.6137
rwrist 0.415254
rhand -13.4104 22.6559
rfingers 7.12502
rthumb 12.6976 -6.93803
lclavicle 2.3059e-014 1.27222e-014
lhumerus -45.8769 37.5087 56.8005
lradius 21.2822
lwrist -20.4417
lhand 6.24324 36.899
lfingers 7.12502
lthumb 31.5551 64.1931
rfemur -1.11766 1.26856 10.9577
rtibia 11.2386
rfoot -9.38069 -11.1701
rtoes -5.48661
lfemur -7.86846 1.04699 -24.1396
ltibia 22.7667
lfoot -14.7901 0.143783
ltoes -0.401081
1631
root 6.47968 17.9576 6.45791 -175.557 5.06931 181.207
lowerback 0.860081 1.36537 -3.10273
upperback 0.468851 1.86413 -1.97416
thorax -0.0330421 0.957733 -0.301397
lowerneck -17.7316 -5.18157 -13.2302
upperneck 10.87 -3.72706 1.38882
head 6.49625 -2.17643 2.14952
rclavicle -1.98785e-015 -4.29375e-014
rhumerus -47.5805 -38.7644 -61.2902
rradius 20.7257
rwrist 0.638516
rhand -12.863 22.6242
rfingers 7.12502
rthumb 13.2253 -6.93624
lclavicle -1.98785e-015 -4.29375e-014
lhumerus -45.2335 36.8778 57.1728
lradius 21.5945
lwrist -19.9925
lhand 5.9891 37.3182
lfingers 7.12502
lthumb 31.3129 64.6595
rfemur -1.03481 1.52159 11.0771
rtibia 11.3284
rfoot -9.55406 -11.3459
rtoes -5.27717
lfemur -7.75164 1.27561 -24.0361
ltibia 22.7551
lfoot -14.8325 0.124157
ltoes -1.72449
1632
root 6.48341 17.9469 6.45318 -175.62 5.02842 180.995
lowerback 0.657636 1.45131 -3.2389
upperback 0.565826 2.00237 -2.14345
thorax 0.179257 1.02844 -0.392524
lowerneck -17.4411 -5.13108 -13.2655
upperneck 11.4783 -3.69464 1.41621
head 6.64762 -2.18808 2.17019
rclavicle -2.42517e-014 -3.18055e-015
rhumerus -47.3632 -38.6747 -61.9182
rradius 20.7539
rwrist 0.94688
rhand -12.2266 23.0251
rfingers 7.12502
rthumb 13.8387 -6.49457
lclavicle -2.42517e-014 -3.18055e-015
lhumerus -44.4456 35.9941 57.6816
lradius 21.9889
lwrist -19.1493
lhand 6.15056 37.5948
lfingers 7.12502
lthumb 31.4668 64.9063
rfemur -1.00517 1.3562 10.8243
rtibia 11.4368
rfoot -9.61487 -11.1958
rtoes -4.67817
lfemur -7.67449 1.29276 -24.2764
ltibia 22.7396
lfoot -14.8499 0.235856
ltoes -4.58357
1633
root 6.49362 17.9468 6.4513 -175.746 4.90815 180.907
lowerback 0.460523 1.45442 -3.46025
upperback 0.599393 2.01795 -2.113
thorax 0.315465 1.0339 -0.231679
lowerneck -16.7978 -5.00571 -13.5372
upperneck 12.2063 -3.54865 1.46532
head 6.77833 -2.15536 2.25355
rclavicle -6.06293e-015 4.29375e-014
rhumerus -46.9075 -38.0068 -62.7867
rradius 20.8204
rwrist 1.30441
rhand -12.2892 23.3849
rfingers 7.12502
rthumb 13.7783 -6.13889
lclavicle -6.06293e-015 4.29375e-014
lhumerus -44.1257 35.1144 58.1012
lradius 22.5834
lwrist -18.161
lhand 6.5131 37.6471
lfingers 7.12502
lthumb 31.8121 64.8906
rfemur -1.03427 1.33552 10.7821
rtibia 11.8551
rfoot -9.77872 -11.2452
rtoes -4.19749
lfemur -7.49643 1.0904 -24.3063
ltibia 22.6492
lfoot -14.7723 0.154638
ltoes -3.17794
1634
root 6.51292 17.9482 6.44804 -175.918 4.96306 181.007
lowerback 0.240084 1.47321 -3.69541
upperback 0.695959 2.05199 -1.941
thorax 0.522994 1.04347 0.0835332
lowerneck -16.4511 -4.84008 -13.7476
upperneck 13.1232 -3.25886 1.31578
head 7.00585 -2.06795 2.27509
rclavicle -7.55382e-015 1.27222e-014
rhumerus -46.3186 -37.4199 -63.5574
rradius 20.8901
rwrist 1.85287
rhand -12.2802 23.7421
rfingers 7.12502
rthumb 13.7869 -5.78107
lclavicle -7.55382e-015 1.27222e-014
lhumerus -43.8117 34.6578 58.3956
lradius 23.0504
lwrist -17.5943
lhand 6.50404 37.9902
lfingers 7.12502
lthumb 31.8035 65.2353
rfemur -1.02149 1.62318 10.9993
rtibia 12.2964
rfoot -9.81059 -11.353
rtoes -3.49309
lfemur -7.23341 1.19346 -24.0914
ltibia 22.5541
lfoot -14.7377 -0.0564185
ltoes -0.842423
1635
root 6.51962 17.946 6.44647 -175.872 5.4671 180.962
lowerback -0.1333 1.57795 -3.88526
upperback 0.740087 2.21437 -1.91939
thorax 0.765335 1.11939 0.224003
lowerneck -16.2915 -4.68731 -13.9172
upperneck 13.956 -2.97568 1.23622
head 7.23793 -1.97276 2.31128
rclavicle -3.67752e-015 -7.95139e-015
rhumerus -45.7097 -36.4508 -64.5336
rradius 21.1945
rwrist 1.51286
rhand -11.3267 24.3699
rfingers 7.12502
rthumb 14.7058 -5.08852
lclavicle -3.67752e-015 -7.95139e-015
lhumerus -43.417 34.459 58.4517
lradius 23.375
lwrist -17.1648
lhand 6.35814 38.298
lfingers 7.12502
lthumb 31.6645 65.5706
rfemur -1.21147 1.81025 10.9007
rtibia 12.3948
rfoot -9.60022 -11.0017
rtoes -2.29645
lfemur -7.2591 1.73242 -24.1782
ltibia 22.6002
lfoot -14.8139 0.0633395
ltoes -3.11356
1636
root 6.51685 17.9569 6.45501 -175.242 6.72933 180.957
lowerback -0.894514 1.80115 -4.06392
upperback 0.456826 2.53518 -1.82001
thorax 0.878792 1.27502 0.447984
lowerneck -15.6869 -4.43685 -14.2612
upperneck 14.4668 -2.56023 1.04844
head 7.28185 -1.81374 2.36052
rclavicle -3.18055e-015 4.85035e-014
rhumerus -45.0117 -34.7101 -65.6183
rradius 21.4767
rwrist 0.962879
rhand -10.6448 24.9046
rfingers 7.12502
rthumb 15.3626 -4.50472
lclavicle -3.18055e-015 4.85035e-014
lhumerus -43.5669 34.3967 58.2743
lradius 23.7123
lwrist -16.7251
lhand 6.22534 38.0615
lfingers 7.12502
lthumb 31.538 65.3591
rfemur -2.31633 2.22521 10.6744
rtibia 12.4463
rfoot -9.46499 -10.3421
rtoes -2.24742
lfemur -7.97542 2.51724 -24.372
ltibia 22.6949
lfoot -14.8639 0.565916
ltoes -5.19339
1637
root 6.49454 17.9671 6.46241 -174.758 7.0665 181.317
lowerback -1.39514 1.53539 -3.67584
upperback 0.212585 2.16608 -1.40643
thorax 0.919596 1.08386 0.661819
lowerneck -14.9612 -4.01846 -15.0157
upperneck 14.8225 -1.80392 0.770123
head 7.23532 -1.50327 2.48191
rclavicle 4.27387e-015 -3.97569e-015
rhumerus -43.8095 -32.5171 -66.7754
rradius 21.4367
rwrist 1.09991
rhand -10.8376 25.0643
rfingers 7.12502
rthumb 15.1769 -4.35914
lclavicle 4.27387e-015 -3.97569e-015
lhumerus -44.3709 34.7011 58.0213
lradius 24.3038
lwrist -16.0482
lhand 5.93963 38.0656
lfingers 7.12502
lthumb 31.2658 65.4161
rfemur -3.15905 1.93134 10.9219
rtibia 12.6845
rfoot -9.35054 -9.9051
rtoes -4.32964
lfemur -8.53697 2.2957 -24.1361
ltibia 22.7618
lfoot -14.7909 0.92382
ltoes -3.3557
1638
root 6.49813 17.9583 6.45518 -175.251 6.16096 181.369
lowerback -1.1951 0.86853 -3.42292
upperback 0.451678 1.26317 -1.24642
thorax 1.08846 0.626583 0.666407
lowerneck -14.6005 -3.64534 -15.4913
upperneck 15.1527 -1.14368 0.554769
head 7.24201 -1.22447 2.56332
rclavicle 2.20651e-014 -1.51076e-014
rhumerus -42.4094 -30.6818 -68.354
rradius 21.42
rwrist 1.18103
rhand -10.9223 25.1229
rfingers 7.12502
rthumb 15.0954 -4.30664
lclavicle 2.20651e-014 -1.51076e-014
lhumerus -44.7126 35.0242 57.6677
lradius 25.0345
lwrist -15.216
lhand 5.51886 38.6648
lfingers 7.12502
lthumb 30.8647 66.092
rfemur -2.39439 1.28907 11.1428
rtibia 12.7641
rfoot -9.43341 -10.1608
rtoes -5.70663
lfemur -8.03146 1.67427 -23.9504
ltibia 22.84
lfoot -14.8134 0.652611
ltoes -2.1632
